<svg xmlns="http://www.w3.org/2000/svg" width="562.168" height="74.02" viewBox="0 0 562.168 74.02">
  <defs>
    <style>
      .cls-1 {
        fill: #fff;
      }

      .cls-2 {
        fill: #ff4c60;
      }
    </style>
  </defs>
  <g id="Group_5" data-name="Group 5" transform="translate(-258.916 -502.99)">
    <g id="Group_4" data-name="Group 4" transform="translate(1.916 5.01)">
      <g id="Group_2" data-name="Group 2">
        <path id="Path_2" data-name="Path 2" class="cls-1" d="M8.2-70.02H49.9q8.936,0,16.455,8.4,4.443,6.4,4.443,12.012v2.881q0,8.545-8.5,16.016-5.176,3.32-8.252,3.857v.1q10.84,9.619,14.258,13.379a9.484,9.484,0,0,1,1.514,4.834q0,5.518-6.152,8.252A8.652,8.652,0,0,1,61.865,0H59.912q-3.418,0-9.033-6.055Q48.926-7.666,28.711-26.318H17.578V-8.4q0,5.713-6.592,8.252A6.438,6.438,0,0,1,9.766,0H7.813Q3.369,0,.537-5.371A7.166,7.166,0,0,1,0-7.861v-54q0-5.322,6.25-7.861A7.485,7.485,0,0,1,8.2-70.02Zm9.375,17.383v9.082H53.223v-9.082ZM99.131-50.02h1.318q4.492,0,7.471,4.98a8.33,8.33,0,0,1,.83,3.857V-8.4q0,5.713-6.738,8.252a7.2,7.2,0,0,1-1.27.146h-2Q94.15,0,91.27-5.371a6.657,6.657,0,0,1-.586-2.49v-34q0-5.322,6.445-7.861A7.636,7.636,0,0,1,99.131-50.02Zm53.818-20h38.428q5.371,0,7.91,5.811a6.438,6.438,0,0,1,.146,1.221v2.637q0,4.1-5.176,7.031a11.089,11.089,0,0,1-3.32.684H146.309v8.789h26.563q16.162,0,24.072,10.205,2.49,3.857,2.49,6.494V-16.7q0,6.1-8.2,12.012A30.027,30.027,0,0,1,175.8,0H136.3q-4,0-6.982-4.541a6.338,6.338,0,0,1-.684-2.637v-1.9q0-5.322,6.25-7.861a10.868,10.868,0,0,1,3.223-.439h43.8v-8.789H153.828A29.761,29.761,0,0,1,133.662-33.5q-5.029-5.029-5.029-10.205v-8.838q0-8.594,11.816-14.746A34.241,34.241,0,0,1,152.949-70.02Zm74.57,0h1.27q4.346,0,7.275,4.98a8.33,8.33,0,0,1,.83,3.857V-43.7h35.645V-60.645q0-7.031,6.836-9.229a11.087,11.087,0,0,1,1.563-.146h1.221q4.492,0,7.422,5.225a8.573,8.573,0,0,1,.537,2.49V-7.568q0,4.053-5.029,6.885A6.105,6.105,0,0,1,282.451,0H280.5q-4.639,0-7.373-5.664a11.372,11.372,0,0,1-.586-3.711V-26.318H236.895V-8.4q0,5.713-6.592,8.252A6.438,6.438,0,0,1,229.082,0h-1.953q-4.443,0-7.275-5.371a7.166,7.166,0,0,1-.537-2.49v-54q0-5.322,6.25-7.861A7.485,7.485,0,0,1,227.52-70.02Zm117.246,0h1.514q5.42,0,8.74,8.643Q380.068-12.012,380.8-10.059v2.637q0,4.443-5.859,7.129A9.583,9.583,0,0,1,372.891,0h-1.27q-5.469,0-8.838-8.936Q345.547-43.018,345.3-43.213,326.016-4.443,324.941-2.881A8.458,8.458,0,0,1,318.984,0h-1.221q-4.443,0-7.324-5.371A9.766,9.766,0,0,1,310-7.861V-8.936q0-1.953,4.98-11.279L338.516-66.7Q341.3-70.02,344.766-70.02Zm64.121,0h41.7q8.936,0,16.455,8.4,4.443,6.4,4.443,12.012v2.881q0,5.615-4.3,11.719,4.3,6.3,4.3,11.572v3.32q0,6.641-6.152,13.623Q458.2,0,451.123,0H408.5q-4.443,0-7.275-5.371a7.166,7.166,0,0,1-.537-2.49v-54q0-5.322,6.25-7.861A7.485,7.485,0,0,1,408.887-70.02Zm9.375,17.383V-43.7h35.645v-8.936Zm0,26.318v8.936h35.645v-8.936Zm81.309-43.7h1.27q4.346,0,7.275,4.98a8.33,8.33,0,0,1,.83,3.857V-43.7H544.59V-60.645q0-7.031,6.836-9.229a11.087,11.087,0,0,1,1.563-.146h1.221q4.492,0,7.422,5.225a8.572,8.572,0,0,1,.537,2.49V-7.568q0,4.053-5.029,6.885A6.106,6.106,0,0,1,554.5,0h-1.953q-4.639,0-7.373-5.664a11.372,11.372,0,0,1-.586-3.711V-26.318H508.945V-8.4q0,5.713-6.592,8.252A6.438,6.438,0,0,1,501.133,0H499.18q-4.443,0-7.275-5.371a7.166,7.166,0,0,1-.537-2.49v-54q0-5.322,6.25-7.861A7.485,7.485,0,0,1,499.57-70.02Z" transform="translate(257 572)"/>
        <circle id="Ellipse_1" data-name="Ellipse 1" class="cls-1" cx="9" cy="9" r="9" transform="translate(347.916 497.98)"/>
      </g>
      <g id="Group_3" data-name="Group 3" transform="translate(-0.084)">
        <path id="Path_2-2" data-name="Path 2" class="cls-2" d="M99.131-50.02h1.318q4.492,0,7.471,4.98a8.33,8.33,0,0,1,.83,3.857V-8.4q0,5.713-6.738,8.252a7.2,7.2,0,0,1-1.27.146h-2Q94.15,0,91.27-5.371a6.657,6.657,0,0,1-.586-2.49v-34q0-5.322,6.445-7.861A7.636,7.636,0,0,1,99.131-50.02Z" transform="translate(257 572)"/>
        <circle id="Ellipse_1-2" data-name="Ellipse 1" class="cls-2" cx="9" cy="9" r="9" transform="translate(347.916 497.98)"/>
      </g>
      <path id="Path_3" data-name="Path 3" class="cls-2" d="M344.766-70.02h1.514q5.42,0,8.74,8.643Q380.068-12.012,380.8-10.059v2.637q0,4.443-5.859,7.129A9.583,9.583,0,0,1,372.891,0h-1.27q-5.469,0-8.838-8.936Q345.547-43.018,345.3-43.213,326.016-4.443,324.941-2.881A8.458,8.458,0,0,1,318.984,0h-1.221q-4.443,0-7.324-5.371A9.766,9.766,0,0,1,310-7.861V-8.936q0-1.953,4.98-11.279L338.516-66.7Q341.3-70.02,344.766-70.02Z" transform="translate(256.916 572)"/>
    </g>
  </g>
</svg>
